<svg version="1.1" id="Layer_1" xmlns="http://www.w3.org/2000/svg" xmlns:xlink="http://www.w3.org/1999/xlink" x="0px" y="0px"
	 width="100%" viewBox="0 0 736 784" enable-background="new 0 0 736 784" xml:space="preserve">
<path fill="#000000" opacity="1.000000" stroke="none" 
	d="
M169.468658,785.000000 
	C163.972015,782.877380 158.704361,781.480164 153.786224,778.915344 
	C146.748734,775.245239 141.740967,769.954468 138.896896,762.772217 
	C137.468826,759.165894 135.411972,758.339294 131.795395,758.204163 
	C118.647369,757.713257 105.566734,759.165100 92.369537,758.551819 
	C57.372932,756.925598 33.050770,728.334106 37.405159,693.391174 
	C40.248016,670.577942 51.390930,653.521729 71.060379,641.950012 
	C74.042183,640.195740 75.674606,638.188721 76.212151,634.671143 
	C81.307175,601.330444 92.534248,569.867981 105.730568,539.009949 
	C108.794792,531.844666 110.793022,524.730225 110.039032,516.434204 
	C108.619446,500.814728 112.312065,486.529663 126.448746,477.041046 
	C130.476578,474.337585 134.702560,471.960022 139.699234,471.602264 
	C143.683075,471.317047 146.162094,469.520111 146.852081,465.387146 
	C147.121765,463.771851 147.802536,462.181030 148.534012,460.696320 
	C149.942535,457.837280 149.150192,455.861145 146.829346,453.765564 
	C137.674744,445.499329 128.568207,437.127350 121.190315,427.177917 
	C105.500107,406.019043 93.879616,382.884705 90.051003,356.601196 
	C86.628036,333.102448 89.130562,309.809540 94.397736,286.705933 
	C100.873932,258.299133 110.775169,231.161331 123.576538,205.048538 
	C125.214661,201.707016 125.476044,198.688980 124.476662,195.050003 
	C118.590775,173.618210 116.557579,151.597580 114.571571,129.544846 
	C112.829048,110.195816 113.505066,90.929375 115.870605,71.750343 
	C117.410065,59.268913 118.441010,46.595577 123.689835,34.813694 
	C134.224655,11.166489 156.142471,2.255706 179.750717,12.899927 
	C197.284988,20.805584 213.509995,30.993149 227.675079,44.187634 
	C239.745377,55.430851 251.810806,66.679619 263.812897,77.995407 
	C265.753082,79.824661 267.378052,80.805222 270.363403,79.989281 
	C296.138550,72.944527 322.414948,69.375168 349.128754,68.350029 
	C380.330170,67.152687 410.890045,71.017738 440.901184,79.163017 
	C447.068085,80.836769 450.890961,79.805489 455.366943,75.451668 
	C471.247894,60.004204 487.112457,44.440163 505.100250,31.418667 
	C519.153748,21.245220 533.966797,12.221357 551.327698,8.529515 
	C564.894287,5.644542 580.676941,12.342566 587.295044,24.503504 
	C594.134888,37.071896 597.910217,50.794365 599.181519,64.953743 
	C600.609680,80.859322 601.618042,96.858185 601.650635,112.818840 
	C601.688049,131.125198 599.717529,149.367035 596.454468,167.415573 
	C594.796448,176.586212 593.032532,185.744217 590.993469,194.835480 
	C590.385559,197.545654 590.956604,199.621384 592.057434,201.949341 
	C609.246887,238.300964 620.522400,276.460510 626.111938,316.235046 
	C631.047424,351.354614 623.043396,383.511566 603.495361,413.160492 
	C593.329224,428.579712 581.712585,442.562286 568.160583,455.005890 
	C566.583557,456.453949 565.945740,457.802979 566.915710,459.785339 
	C567.353394,460.679779 567.823669,461.616638 567.977051,462.582245 
	C568.941345,468.652771 572.261719,471.301147 578.437805,473.122711 
	C597.158997,478.644196 608.048523,495.844055 605.554932,515.057068 
	C604.485657,523.295471 605.697021,530.550720 609.380249,538.028809 
	C624.833862,569.404297 635.833679,602.322815 642.048706,636.777893 
	C642.537842,639.489685 643.567627,641.356750 645.983643,642.671021 
	C669.482666,655.453918 684.219788,688.605652 675.980835,718.317932 
	C668.496826,745.307617 645.622070,758.260010 622.911072,759.189331 
	C609.602112,759.733948 596.252441,759.287354 582.921082,759.275330 
	C580.566467,759.273193 578.401794,759.148071 577.124146,761.959534 
	C570.885742,775.687500 559.730896,782.473938 545.101257,784.197815 
	C544.612061,784.255432 544.141663,784.473511 543.331238,784.808472 
	C418.645782,785.000000 294.291534,785.000000 169.468658,785.000000 
M403.367828,96.261528 
	C391.777008,93.830322 380.062988,92.576286 368.219940,92.301559 
	C354.372375,91.980331 340.589569,92.687126 326.843597,94.330666 
	C306.970367,96.706802 287.311737,100.172447 268.592682,107.478180 
	C262.844238,109.721703 258.333740,108.599899 254.622421,104.460526 
	C248.375885,97.493561 241.039124,91.646141 234.696259,84.865555 
	C219.552307,68.676552 202.111328,55.399605 183.987152,42.887684 
	C178.058212,38.794666 171.542465,35.817734 164.871414,33.179855 
	C160.214172,31.338280 156.154312,32.188007 152.576202,35.854946 
	C148.157425,40.383438 144.845306,45.447536 143.964386,51.829044 
	C143.237320,57.096127 142.862228,62.423141 141.902435,67.644791 
	C137.795944,89.985481 138.841095,112.441330 140.708557,134.835846 
	C142.424042,155.407959 145.918854,175.738052 151.820297,195.595505 
	C152.821472,198.964310 153.100143,202.464294 151.265182,205.799759 
	C137.861603,230.163849 128.698532,256.158173 121.397530,282.901764 
	C117.434311,297.419037 115.004089,312.120850 114.135567,327.140228 
	C113.941269,330.500183 116.640450,333.229462 115.888298,336.172699 
	C114.296814,342.400330 115.270340,348.398254 116.298035,354.467316 
	C121.766495,386.761047 138.066925,412.723297 162.806122,433.682770 
	C174.022705,443.185638 186.243027,451.263885 198.997375,458.558777 
	C202.754654,460.707733 207.208878,462.694733 208.959061,466.621277 
	C211.207764,471.666229 214.889542,471.632050 219.121582,471.574463 
	C232.268845,471.395660 245.431198,470.803070 258.561218,471.214844 
	C281.884399,471.946228 305.201141,471.405212 328.519073,471.525787 
	C366.994537,471.724731 405.471863,471.634766 443.948212,471.564667 
	C462.273102,471.531311 480.597961,471.294769 498.921753,471.063690 
	C501.303070,471.033691 504.133392,471.702820 505.638458,468.923828 
	C508.310913,463.989288 512.838074,461.191315 517.422180,458.436249 
	C525.421753,453.628479 533.177551,448.472168 540.733093,442.976959 
	C571.100647,420.890381 591.808533,392.357056 600.335266,355.369232 
	C602.079651,347.802277 602.566650,340.939423 597.042053,334.747192 
	C596.686523,334.348755 596.774292,333.554779 596.586243,332.586212 
	C601.997620,332.456665 602.351562,329.101898 602.054871,325.020935 
	C601.377625,315.706696 600.373657,306.420135 598.012878,297.394897 
	C589.916199,266.441315 581.289185,235.659439 565.546570,207.454895 
	C562.963684,202.827408 563.092468,198.213394 564.585144,193.054428 
	C570.982239,170.944519 574.871643,148.358276 575.642212,125.324837 
	C576.405334,102.511093 576.055847,79.737160 572.631348,57.080498 
	C571.560425,49.994923 569.424500,43.494129 565.225220,37.716095 
	C561.233032,32.223133 557.100647,31.061209 550.879333,33.544624 
	C542.654785,36.827667 534.717590,40.700089 527.557800,45.941311 
	C504.127228,63.093410 482.310059,82.097710 462.370697,103.227318 
	C458.863953,106.943413 454.884430,109.886070 449.618408,107.781494 
	C434.975891,101.929634 419.616180,99.100700 403.367828,96.261528 
M256.499817,721.714722 
	C354.637848,721.714355 452.775909,721.714111 550.913940,721.713196 
	C557.963135,721.713135 558.021423,721.717651 558.827271,714.620789 
	C560.778748,697.435791 562.461914,680.226501 564.020142,662.998413 
	C566.237061,638.488159 569.205811,614.046875 571.601868,589.551575 
	C573.997131,565.064636 575.708984,540.519958 579.373657,516.152649 
	C581.106262,504.632294 579.015198,496.022156 562.453308,496.068024 
	C445.820862,496.390930 329.187073,496.317505 212.553848,496.191833 
	C191.246674,496.168884 169.925217,497.064178 148.622711,495.517303 
	C139.629410,494.864258 134.503860,500.823822 135.525024,509.479340 
	C138.875092,537.874756 142.127457,566.282593 145.221191,594.706970 
	C147.182327,612.725281 148.653091,630.796875 150.599487,648.816895 
	C152.992203,670.969055 155.838593,693.073669 158.058243,715.241943 
	C158.586731,720.520020 160.542068,721.838257 165.526169,721.806641 
	C195.516357,721.616272 225.508377,721.713806 256.499817,721.714722 
M406.500000,759.850037 
	C450.812042,759.854858 495.124115,759.830322 539.436035,759.900208 
	C545.254150,759.909363 549.765137,757.751282 553.097290,753.058655 
	C554.273071,751.402832 555.402100,749.528137 554.427795,747.510315 
	C553.448303,745.481812 551.289856,746.049561 549.508423,746.049988 
	C434.558960,746.078003 319.609497,746.112915 204.660019,746.154114 
	C192.332123,746.158569 180.003662,746.142700 167.676605,746.258240 
	C162.107605,746.310425 160.608429,749.237305 163.482590,753.975159 
	C164.560318,755.751709 166.104874,756.903809 167.923218,757.856750 
	C171.462814,759.711731 175.241104,759.809387 179.103409,759.809082 
	C254.568939,759.802734 330.034485,759.827759 406.500000,759.850037 
M619.118652,657.353943 
	C611.286133,655.449768 603.467651,654.852783 595.380615,656.078186 
	C590.895508,656.757874 589.497925,658.713257 589.305176,662.852356 
	C588.973022,669.985596 588.418945,677.115295 587.723328,684.223511 
	C586.299255,698.775208 584.626526,713.302795 583.248718,727.858582 
	C582.672363,733.948059 585.931396,736.687500 591.990967,735.486328 
	C595.733032,734.744568 598.745239,732.774536 600.689148,729.348267 
	C602.940002,725.381042 604.124634,721.112549 604.795532,716.615601 
	C605.528015,711.705933 605.646912,706.611450 608.204346,702.134338 
	C610.263245,698.529724 613.298157,696.446960 617.587158,696.705994 
	C621.498535,696.942078 623.830505,699.233154 625.487854,702.658386 
	C627.789978,707.416077 627.562622,712.297363 626.898560,717.308899 
	C626.145142,722.994507 624.633728,728.518982 622.999634,734.289124 
	C624.159729,734.387390 624.820923,734.586121 625.423950,734.473511 
	C639.343811,731.873840 651.119690,718.620972 651.705383,704.325317 
	C652.646851,681.350342 643.516663,664.205139 619.118652,657.353943 
M110.165352,712.672058 
	C110.482414,716.854675 111.468964,720.875671 113.089325,724.741943 
	C114.450050,727.988708 115.920448,731.157166 119.029480,733.177979 
	C122.619736,735.511536 126.447533,735.161926 130.014877,733.538025 
	C133.116913,732.125977 131.958206,728.870850 131.882614,726.386230 
	C131.715759,720.903442 131.809082,715.421082 131.129181,709.933838 
	C129.474228,696.576721 127.821465,683.204102 126.783279,669.790100 
	C125.791252,656.972656 126.132957,656.946167 113.466660,655.612427 
	C94.127243,653.576050 73.929520,665.445374 66.805115,683.033264 
	C59.186386,701.841370 64.323952,720.258423 80.311172,731.174194 
	C83.764915,733.532410 87.458557,735.332397 92.417191,734.163147 
	C91.297607,729.458862 90.115440,725.018860 89.202766,720.524231 
	C88.039162,714.793823 87.199181,709.050415 89.654839,703.360229 
	C91.386726,699.347168 93.983330,696.716675 98.624451,696.671326 
	C103.263939,696.626038 106.156067,699.068176 107.626572,703.215881 
	C108.620461,706.019165 109.215996,708.963623 110.165352,712.672058 
M594.892822,629.331055 
	C601.412170,628.022339 607.915527,628.989441 615.086182,630.500916 
	C611.110168,611.437256 606.061157,593.953491 598.579651,577.011658 
	C597.004089,578.092163 597.349182,579.191101 597.262756,580.121521 
	C596.296326,590.525696 594.936340,600.918823 594.590759,611.345093 
	C594.396362,617.210083 591.869202,623.081177 594.892822,629.331055 
M118.755478,580.898132 
	C118.608978,580.536926 118.906158,579.747498 118.014748,580.110962 
	C117.883179,580.164551 117.778809,580.351929 117.717339,580.500366 
	C116.765526,582.797791 115.807793,585.093018 114.880661,587.400391 
	C109.917961,599.751465 106.638214,612.596130 103.725594,625.546753 
	C103.251854,627.653137 103.054016,630.125061 106.184990,629.433411 
	C111.420387,628.276917 116.679077,628.927002 122.540962,628.815491 
	C121.268150,612.804810 120.022507,597.135742 118.755478,580.898132 
z"/>
<path fill="#000000" opacity="1.000000" stroke="none" 
	d="
M391.853058,311.100586 
	C358.888550,299.731232 328.527100,305.011200 300.058777,323.574768 
	C295.608734,326.476593 291.070679,329.511414 287.397064,333.286407 
	C275.676056,345.330872 262.689636,347.311462 247.430161,340.560883 
	C239.369705,336.995087 231.223785,333.610199 223.296249,329.742004 
	C221.376328,328.805176 218.537170,327.575104 219.529816,325.218353 
	C220.890793,321.987061 220.040604,317.093231 225.155411,316.082367 
	C232.004898,314.728729 238.705978,315.106628 245.255585,317.622253 
	C252.695343,320.479767 259.866943,319.066040 267.380127,316.627319 
	C266.306396,313.422333 264.178009,312.608032 261.690399,311.940918 
	C248.190689,308.320435 239.096680,300.264343 236.185562,286.145325 
	C233.281845,272.062347 244.547562,257.966339 258.927429,257.672943 
	C279.621124,257.250702 293.969055,271.453918 293.420044,291.720367 
	C293.335968,294.822571 292.494781,297.670135 291.008118,300.270111 
	C289.710083,302.540161 289.820679,304.525330 291.751251,306.035706 
	C293.626648,307.502991 295.625336,306.107941 296.518951,304.720551 
	C302.147003,295.982819 309.292267,287.950104 310.700348,277.094116 
	C311.147339,273.648071 309.779938,270.446503 307.261383,268.038086 
	C304.380035,265.282776 301.625061,261.981354 298.143555,260.355194 
	C291.257965,257.139099 287.343964,251.548492 284.247314,245.242279 
	C281.910339,240.483139 279.253326,236.618347 273.570007,235.883118 
	C272.724091,235.773682 272.103760,235.142807 271.812195,234.106049 
	C272.553833,231.366043 274.686218,232.195770 276.604889,232.412201 
	C279.894165,232.783249 283.097015,233.654633 286.508087,233.196930 
	C298.810333,231.546188 304.443207,222.053223 299.872620,210.425385 
	C296.534088,201.932007 298.143768,199.793640 307.509338,200.104813 
	C310.618408,200.208099 313.446075,201.231155 316.001343,202.780151 
	C330.672485,211.673859 346.418518,210.186035 362.006805,206.942535 
	C372.341583,204.792145 382.234344,203.539215 392.363770,207.513809 
	C399.952118,210.491348 407.757568,209.058960 415.570374,207.333389 
	C416.821808,209.961945 415.305267,212.103104 414.905579,214.245987 
	C413.034424,224.278442 419.618317,232.472992 429.773071,232.818481 
	C435.150940,233.001450 440.433716,232.310501 445.633118,231.313278 
	C450.557800,230.368774 455.414825,229.415985 460.456543,229.581482 
	C466.646576,229.784653 471.316101,225.777069 476.593689,223.490356 
	C478.145203,222.818085 477.512848,221.397522 476.977325,220.039413 
	C474.560974,213.911240 471.197784,208.493118 465.942566,204.384491 
	C463.867126,202.761856 461.798401,201.130615 458.814697,198.786942 
	C464.334442,196.656372 467.898315,195.680115 471.747528,196.291367 
	C473.559052,196.579010 475.330414,196.942673 477.182526,196.428055 
	C479.813904,195.696930 482.594543,195.795349 483.365051,198.828949 
	C484.171173,202.002930 481.903961,204.129837 479.238922,205.473923 
	C478.282013,205.956543 477.002045,205.798569 475.880676,205.931641 
	C476.279755,213.276474 479.084229,215.776154 486.003326,215.137405 
	C489.595276,214.805786 493.125122,214.930023 495.460419,218.250977 
	C497.785889,221.557938 496.123352,224.658417 494.538788,227.608078 
	C492.627167,231.166473 492.323700,234.702820 493.286255,238.673615 
	C495.903198,249.469086 489.985626,255.418808 478.933563,253.489380 
	C474.091797,252.644104 469.367218,250.288010 464.264130,252.263351 
	C462.589233,252.911682 461.256195,253.897949 460.978149,255.688385 
	C460.667328,257.689758 462.388519,258.078308 463.786346,258.582336 
	C481.530975,264.980804 486.673218,290.743713 469.719971,304.371155 
	C465.346008,307.887085 460.205902,309.784332 455.234802,312.094818 
	C450.862000,314.127228 450.804321,315.795258 454.378082,318.742310 
	C458.503632,322.144379 462.550476,324.228302 468.366150,323.219910 
	C473.669281,322.300446 478.851288,323.014343 483.816132,326.890472 
	C486.942047,329.330902 491.672485,326.381439 495.265717,324.254059 
	C500.578491,321.108582 505.890717,317.983429 512.272278,317.570862 
	C513.297485,317.504578 514.248840,317.661743 515.104126,318.733887 
	C513.933472,320.930328 511.515198,321.086182 509.686035,321.716339 
	C494.025024,327.111633 480.342194,336.636261 464.998505,342.801178 
	C455.068359,346.791046 446.616028,345.883179 438.132019,340.339844 
	C427.259216,333.235779 417.264496,324.830811 405.918854,318.429810 
	C401.426941,315.895508 396.783936,313.629059 391.853058,311.100586 
M412.652771,266.165497 
	C411.577179,267.645355 410.405060,269.065216 409.442078,270.614990 
	C404.222107,279.016235 407.336029,291.073425 415.922638,295.869202 
	C417.583038,296.796539 419.316772,297.356323 421.135559,296.386902 
	C422.774261,295.513458 422.533478,293.994843 422.425171,292.449982 
	C421.494385,279.171143 426.529327,268.801697 437.920013,261.830109 
	C443.664001,258.314575 449.818390,255.704956 456.957733,256.653229 
	C452.301239,255.977264 448.446411,253.579300 444.321808,251.946167 
	C441.544342,250.846436 438.577698,250.229584 436.324921,252.406036 
	C433.440338,255.192841 429.936798,256.435425 426.397980,257.880768 
	C421.628601,259.828644 416.892029,261.917206 412.652771,266.165497 
z"/>
<path fill="#000000" opacity="1.000000" stroke="none" 
	d="
M341.158447,431.370483 
	C313.212646,441.822296 280.969849,429.953583 269.415802,405.130463 
	C267.746399,401.543884 266.268738,397.921814 267.360291,393.630951 
	C268.496429,389.164734 270.765228,385.896057 275.242432,384.905487 
	C280.106873,383.829254 284.545807,384.846405 287.523315,389.396057 
	C289.347900,392.184052 291.119629,395.009308 293.024506,397.741547 
	C302.078827,410.728668 320.160583,415.440735 334.405304,408.564972 
	C342.982117,404.425049 347.386169,395.732971 345.926849,386.325104 
	C345.579651,384.086853 344.323029,383.223419 342.525543,382.555573 
	C339.248657,381.337982 335.845459,380.367737 332.733185,378.816406 
	C322.178314,373.555328 316.414001,364.933960 315.669647,353.137177 
	C314.804688,339.429688 316.153412,333.432404 334.000641,328.077087 
	C350.766449,323.046204 367.801636,323.024628 384.636963,328.494629 
	C388.326019,329.693237 391.679718,331.506165 394.642212,334.007782 
	C397.723907,336.610077 399.233673,339.808746 399.427307,343.990204 
	C399.911682,354.450256 398.628662,364.113312 391.185669,372.381104 
	C386.305756,377.801849 379.848877,379.812195 373.516937,382.194733 
	C370.624512,383.283081 369.283752,384.548737 369.207916,387.832031 
	C368.824829,404.422058 383.142303,415.173950 400.478516,411.203918 
	C411.142670,408.761780 419.253021,402.934509 424.653870,393.408752 
	C426.940063,389.376434 429.692932,385.793365 434.516296,384.883881 
	C438.198883,384.189514 442.122467,384.231079 444.591217,387.609741 
	C447.839874,392.055756 448.456909,397.256927 446.504578,402.342560 
	C441.228333,416.086823 430.922333,424.843323 417.638428,430.424377 
	C397.312805,438.964050 378.249939,435.942810 360.313538,423.856354 
	C358.079987,422.351349 356.687012,422.524139 354.634613,424.053558 
	C350.623169,427.042938 346.218964,429.436768 341.158447,431.370483 
z"/>
<path fill="#000000" opacity="1.000000" stroke="none" 
	d="
M544.150452,70.880096 
	C550.654175,71.496086 551.405029,76.393867 552.262451,80.949203 
	C553.905273,89.677521 553.394043,98.516586 553.002991,107.312424 
	C552.205933,125.242081 549.954834,143.024017 547.175598,160.742493 
	C546.711975,163.698059 546.272095,166.680954 544.884583,169.384521 
	C542.349976,174.323227 539.075439,175.043137 535.029785,171.216156 
	C527.299744,163.903931 519.820374,156.326721 512.090820,149.013992 
	C507.382294,144.559387 502.385406,140.410522 497.546173,136.092804 
	C492.835541,131.889847 492.314240,128.630310 495.710144,123.463806 
	C506.993378,106.297432 520.220703,90.747513 535.056763,76.561981 
	C537.577026,74.152245 540.253357,71.865654 544.150452,70.880096 
z"/>
<path fill="#000000" opacity="1.000000" stroke="none" 
	d="
M209.874329,109.175354 
	C213.611481,114.308067 217.112946,119.168655 220.645889,124.006256 
	C223.633438,128.097061 223.630875,131.458664 219.746155,134.491959 
	C206.178680,145.085739 194.645233,157.775925 182.557266,169.905014 
	C176.232193,176.251602 172.751846,175.475967 170.727737,166.742783 
	C164.208969,138.617233 160.515182,110.168068 163.565903,81.259285 
	C164.570312,71.741455 170.820877,69.480766 178.783218,75.115829 
	C189.826538,82.931351 197.732040,93.714333 206.016434,104.130280 
	C207.259521,105.693184 208.441849,107.304398 209.874329,109.175354 
z"/>
<path fill="#000000" opacity="1.000000" stroke="none" 
	d="
M327.886993,627.826355 
	C322.521118,614.251526 325.054169,602.289612 335.048645,592.652161 
	C345.014984,583.041931 357.369659,580.888062 370.250153,585.989380 
	C383.038269,591.054138 390.370361,601.268066 390.848083,614.776550 
	C391.419739,630.942444 380.138489,644.665466 362.782135,647.131653 
	C347.793945,649.261414 334.698090,641.817505 327.886993,627.826355 
z"/>
</svg>